<?xml version="1.0" encoding="utf-8"?>
<svg width="525" height="525" xmlns="http://www.w3.org/2000/svg" version="1.1">
  <g class="layer" style="" transform="matrix(1.020825, 0, 0, 1.01167, -4.453546, -3.525905)">
    <title>Layer 1</title>
    <g>
      <path d="m189.36,76.76c-1.26,0.21 -3.85,2.78 -6.26,6.21c-2.26,3.23 -5.89,9.62 -8.07,14.2c-2.23,4.72 -4.67,12 -5.62,16.8c-1.2,6.03 -1.51,11.06 -1.11,17.5c0.32,5.01 1.53,11.92 2.71,15.53c1.18,3.57 3.72,9.39 5.65,12.93c1.92,3.54 5.44,8.94 7.8,12c2.37,3.06 8.97,10.07 14.67,15.58c6.13,5.92 24.68,20.92 45.37,36.69c19.25,14.68 38.27,29.5 42.27,32.94c4,3.44 10.24,10 13.87,14.57c3.62,4.58 7.31,8.73 8.2,9.22c0.96,0.54 2.31,0.53 3.34,-0.03c0.95,-0.51 2.2,-2.61 2.77,-4.66c0.57,-2.06 1.04,-5.34 1.04,-7.29c0.01,-1.96 -1.2,-5.98 -2.68,-8.95c-1.47,-2.96 -5.75,-8.61 -9.5,-12.56c-3.83,-4.04 -19.85,-17.2 -36.56,-30.06c-16.37,-12.58 -33.57,-26.05 -38.25,-29.94c-4.68,-3.89 -11.32,-9.69 -14.77,-12.89c-3.45,-3.19 -9.04,-9.46 -12.42,-13.93c-3.37,-4.46 -7.59,-11.27 -9.36,-15.12c-1.77,-3.85 -3.73,-9.38 -4.34,-12.3c-0.61,-2.91 -1.11,-8.78 -1.11,-13.04c0,-4.26 0.68,-10.42 1.5,-13.7c0.83,-3.28 3.3,-9.56 5.5,-13.96c2.2,-4.4 4,-8.94 4,-10.1c0,-1.15 -0.79,-2.77 -1.75,-3.59c-0.96,-0.83 -2.43,-1.71 -3.25,-1.95c-0.82,-0.25 -2.47,-0.29 -3.64,-0.1m134.88,0.28c-1.24,0.5 -2.8,2.09 -3.46,3.54c-1.07,2.34 -0.8,3.38 2.42,9.28c1.99,3.65 4.51,9.4 5.61,12.78c1.11,3.37 2.32,9.04 2.7,12.59c0.39,3.69 0.2,9.63 -0.45,13.8c-0.62,4.03 -2.38,10.29 -3.9,13.92c-1.53,3.62 -4.74,9.5 -7.14,13.07c-2.4,3.56 -7.78,10.03 -11.95,14.37c-4.16,4.34 -12.97,12.39 -19.57,17.89c-6.6,5.5 -12.43,10.88 -12.95,11.97c-0.8,1.64 -0.11,2.78 4.17,6.86c2.82,2.69 5.99,4.89 7.05,4.89c1.05,0 5.02,-2.2 8.82,-4.89c3.8,-2.68 11.3,-8.56 16.66,-13.06c5.36,-4.5 12.78,-11.75 16.5,-16.11c3.71,-4.37 8.43,-10.71 10.49,-14.1c2.06,-3.39 4.62,-8.53 5.7,-11.41c1.08,-2.88 2.72,-8.98 3.64,-13.55c1.19,-5.85 1.52,-10.83 1.13,-16.85c-0.33,-4.89 -1.65,-11.94 -3.11,-16.53c-1.4,-4.4 -4.56,-11.37 -7.01,-15.5c-2.46,-4.12 -5.51,-8.7 -6.78,-10.16c-1.27,-1.47 -3.21,-2.9 -4.31,-3.18c-1.1,-0.28 -3.02,-0.11 -4.26,0.38m-76.24,29.96c-1.41,1.41 -2,3.33 -2,6.5c0,4.5 0,4.5 -4.75,4.63c-2.61,0.07 -11.5,0.41 -19.75,0.75c-15,0.62 -15,0.62 -15,3.12c0,2.5 0,2.5 19.63,2.77c19.63,0.27 19.63,0.27 20.09,5.9c0.33,3.93 1.03,6.04 2.32,6.98c1.35,0.99 5.79,1.35 16.59,1.35c14.12,0 14.82,-0.1 16.31,-2.22c1.21,-1.73 1.56,-5.06 1.56,-15c0,-11.45 -0.21,-12.99 -2,-14.78c-1.82,-1.82 -3.33,-2 -16.5,-2c-13.17,0 -14.68,0.18 -16.5,2m-20.3,45.78c-1.13,1.24 -1.7,3.57 -1.7,6.89c0,3.59 0.52,5.49 1.83,6.67c1.57,1.43 4.64,1.66 22.06,1.66c13.47,0 20.97,-0.39 22.43,-1.16c1.2,-0.64 2.67,-1.83 3.26,-2.63c0.84,-1.15 3.36,-1.43 11.5,-1.29c7.85,0.13 10.91,-0.19 12.42,-1.3c1.43,-1.06 1.69,-1.8 0.93,-2.57c-0.61,-0.63 -5.78,-1.19 -12.08,-1.32c-10.88,-0.23 -11.05,-0.27 -13.6,-3.23c-2.57,-3 -2.57,-3 -23.96,-3.3c-19.88,-0.29 -21.5,-0.17 -23.09,1.58m108.72,63.29c-1.7,0.5 -3.91,1.81 -4.92,2.93c-1.14,1.26 -2.01,4.12 -2.29,7.51c-0.46,5.48 -0.46,5.49 -3.83,5.49c-2.67,0 -3.38,0.41 -3.38,1.92c0,1.05 -0.27,2.63 -0.61,3.5c-0.49,1.28 0.17,1.58 3.5,1.58c4.11,0 4.11,0 4.11,15.33c0,13.9 0.16,15.35 1.75,15.44c0.96,0.06 2.76,-0.1 4,-0.35c2.21,-0.45 2.25,-0.71 2.25,-15.44c0,-14.98 0,-14.98 4.61,-14.98c3.79,0 4.5,-0.28 4,-1.58c-0.34,-0.87 -0.61,-2.49 -0.61,-3.61c0,-1.75 -0.53,-1.97 -4,-1.64c-4,0.38 -4,0.38 -4,-3.37c0,-2.9 0.57,-4.13 2.5,-5.39c1.38,-0.91 3.4,-1.41 4.5,-1.12c1.7,0.45 2,0.03 2,-2.78c0,-2.08 -0.58,-3.52 -1.58,-3.9c-0.87,-0.34 -2.33,-0.57 -3.25,-0.52c-0.92,0.05 -3.06,0.49 -4.75,0.98m15.58,26.32c0,23.15 0.19,26.47 1.58,27c0.87,0.34 2.67,0.61 4,0.61c2.42,0 2.42,0 2.42,-27c0,-27 0,-27 -4,-27c-4,0 -4,0 -4,26.39m26.62,-10.19c-2.13,0.58 -5.58,2.76 -7.66,4.84c-2.86,2.86 -4.04,5.09 -4.86,9.12c-0.67,3.35 -0.74,6.75 -0.18,9.11c0.48,2.08 1.59,4.86 2.46,6.19c0.87,1.32 3.18,3.63 5.14,5.12c2.37,1.81 5.2,2.88 8.47,3.19c2.69,0.26 6.49,0.18 8.42,-0.19c1.94,-0.36 4.91,-1.82 6.6,-3.25c1.69,-1.42 4.01,-4.41 5.16,-6.65c1.68,-3.3 1.97,-5.28 1.56,-10.4c-0.35,-4.38 -1.23,-7.38 -2.85,-9.75c-1.29,-1.88 -3.93,-4.31 -5.86,-5.39c-1.94,-1.08 -5.54,-2.2 -8.02,-2.48c-2.48,-0.29 -6.25,-0.05 -8.38,0.54m-157.62,1.49c-1.92,0.26 -4.06,0.94 -4.75,1.51c-0.69,0.58 -1.25,3.18 -1.25,5.8c0,2.74 0.56,5.22 1.33,5.86c0.73,0.61 5.19,1.4 9.91,1.76c8.3,0.64 8.65,0.58 11.17,-1.93c1.61,-1.62 2.59,-3.71 2.59,-5.53c0,-1.62 -0.79,-3.87 -1.75,-5.01c-1.31,-1.55 -3.26,-2.18 -7.75,-2.5c-3.3,-0.24 -7.57,-0.22 -9.5,0.04m159.31,5.74c-1.75,0.78 -3.93,2.88 -4.86,4.66c-1.16,2.25 -1.53,4.74 -1.2,8.17c0.36,3.71 1.18,5.63 3.36,7.81c1.59,1.59 4.24,3.14 5.89,3.45c2.06,0.38 4.04,-0.09 6.31,-1.5c1.82,-1.14 3.99,-3.69 4.82,-5.67c1,-2.4 1.28,-4.93 0.83,-7.58c-0.37,-2.18 -1.86,-5.28 -3.32,-6.87c-1.45,-1.6 -3.99,-3.13 -5.64,-3.4c-1.65,-0.28 -4.43,0.14 -6.19,0.93m-179.65,18.4c-1.19,1.3 -1.66,3.68 -1.66,8.3c0,3.7 0.51,6.98 1.2,7.67c0.87,0.87 8.25,1.2 26.93,1.2c25.72,0 25.72,0 27.88,-2.75c2.09,-2.65 2.57,-2.77 13.72,-3.25c9.34,-0.4 11.76,-0.82 12.61,-2.17c0.76,-1.2 0.68,-2.1 -0.27,-3.25c-1.06,-1.27 -3.52,-1.58 -12.62,-1.58c-11.31,0 -11.31,0 -13.45,-3c-2.14,-3 -2.14,-3 -27.41,-3c-23.22,0 -25.41,0.15 -26.93,1.83m22.37,31.1c-0.56,1.07 -1.03,3.67 -1.03,5.78c0,2.12 0.7,4.85 1.56,6.07c1.52,2.17 2.01,2.22 21.92,2.22c20.38,0 20.38,0 22.53,-2.75c2.06,-2.62 2.65,-2.77 12.83,-3.25c9.83,-0.46 10.66,-0.66 10.66,-2.5c0,-1.86 -0.76,-2.02 -10.66,-2.28c-10.07,-0.27 -10.74,-0.42 -12.27,-2.75c-1.62,-2.47 -1.62,-2.47 -23.06,-2.47c-20.17,0 -21.5,0.11 -22.48,1.93m32.24,25.28c-1.22,0.59 -2.49,1.91 -2.81,2.92c-0.32,1.02 0,2.68 0.73,3.7c0.72,1.01 8.74,8.32 17.81,16.22c9.07,7.91 19.72,17.63 23.65,21.6c3.94,3.97 9.23,10.13 11.77,13.69c2.54,3.56 5.92,9.33 7.5,12.83c1.59,3.5 3.44,9.18 4.12,12.62c0.73,3.72 1.02,10 0.71,15.48c-0.38,6.7 -1.26,11.15 -3.23,16.23c-1.48,3.85 -3.42,8.86 -4.31,11.13c-1.49,3.83 -1.48,4.31 0.12,6.75c1.27,1.94 2.55,2.62 4.94,2.61c1.78,-0.01 3.73,-0.35 4.35,-0.75c0.62,-0.41 2.97,-3.6 5.22,-7.1c2.25,-3.49 5.47,-9.9 7.14,-14.25c1.68,-4.34 3.57,-11.27 4.21,-15.4c0.9,-5.78 0.89,-9.59 -0.05,-16.66c-0.73,-5.47 -2.42,-12.05 -4.2,-16.33c-1.64,-3.94 -5.3,-10.73 -8.13,-15.08c-2.83,-4.36 -9,-11.74 -13.73,-16.42c-4.72,-4.68 -13.08,-11.93 -18.58,-16.11c-5.5,-4.19 -13.73,-10.15 -18.29,-13.25c-6.94,-4.72 -8.97,-5.63 -12.5,-5.57c-2.32,0.04 -5.21,0.55 -6.44,1.14m-36.41,11.02c-3.5,2.32 -12.24,10.08 -19.42,17.25c-7.19,7.16 -15.4,16.47 -18.26,20.69c-2.85,4.21 -6.75,11.32 -8.66,15.78c-1.91,4.47 -3.99,11.11 -4.63,14.77c-0.66,3.79 -0.91,10.35 -0.58,15.22c0.31,4.71 1.44,11.04 2.5,14.06c1.05,3.02 3.35,8.43 5.11,12c1.76,3.57 4.42,8.3 5.93,10.5c2.11,3.1 3.48,4.07 6.03,4.32c2.1,0.2 4,-0.31 5.21,-1.4c1.05,-0.95 1.91,-2.8 1.91,-4.11c0,-1.32 -0.85,-4.06 -1.9,-6.11c-1.04,-2.05 -2.93,-7.09 -4.19,-11.21c-1.6,-5.25 -2.3,-10.04 -2.32,-15.99c-0.01,-4.68 0.59,-10.98 1.33,-14c0.74,-3.02 2.63,-8.36 4.19,-11.85c1.57,-3.49 4.83,-9.11 7.25,-12.5c2.42,-3.38 7.95,-9.7 12.27,-14.03c4.33,-4.33 12.48,-11.68 18.12,-16.33c5.64,-4.65 10.25,-9.15 10.25,-10.01c0,-0.86 -2.19,-3.75 -4.86,-6.42c-2.67,-2.67 -5.77,-4.86 -6.88,-4.86c-1.12,0 -4.9,1.9 -8.4,4.23m17.7,34.99c-0.86,1.22 -1.56,3.68 -1.56,5.46c0,3.23 0,3.23 -7.25,3.53c-6.99,0.28 -7.25,0.38 -7.25,2.79c0,2.41 0.26,2.51 7.25,2.79c7.25,0.3 7.25,0.3 7.25,3.75c0,2.13 0.77,4.23 2,5.46c1.79,1.79 3.33,2 14.5,2c11.17,0 12.71,-0.21 14.5,-2c1.23,-1.23 2,-3.33 2,-5.46c0,-3.46 0,-3.46 8.75,-3.75c8.59,-0.29 8.75,-0.34 8.75,-2.79c0,-2.45 -0.16,-2.5 -8.75,-2.79c-8.75,-0.29 -8.75,-0.29 -8.75,-4.09c0,-2.42 -0.67,-4.41 -1.83,-5.47c-1.5,-1.36 -4.14,-1.65 -14.94,-1.65c-12.42,0 -13.2,0.12 -14.67,2.22m9.8,35.77c-1.18,0.48 -2.79,1.79 -3.58,2.91c-1.34,1.91 -2.6,2.07 -18.84,2.33c-15.84,0.25 -17.45,0.43 -17.76,2.07c-0.19,0.99 0.2,2.45 0.86,3.25c0.96,1.16 4.53,1.45 17.91,1.45c16.52,0 16.73,0.03 19.05,2.5c2.35,2.5 2.35,2.5 22.62,2.5c19.81,0 20.3,-0.05 21.82,-2.22c0.88,-1.26 1.56,-4.3 1.56,-7c0,-3.45 -0.56,-5.34 -2,-6.78c-1.86,-1.86 -3.29,-2 -20.75,-1.94c-10.31,0.04 -19.71,0.46 -20.89,0.93" fill="#fb3374" fill-rule="evenodd" id="svg_1"/>
      <path d="m0,262.5c0,262.5 0,262.5 262.75,262.25c262.75,-0.25 262.75,-0.25 263,-262.5c0.25,-262.25 0.25,-262.25 -262.75,-262.25c-263,0 -263,0 -263,262.5m0.49,0.5c0,144.38 0.12,203.44 0.26,131.25c0.14,-72.19 0.14,-190.31 0,-262.5c-0.14,-72.19 -0.26,-13.12 -0.26,131.25m188.87,-186.24c-1.26,0.21 -3.85,2.78 -6.26,6.21c-2.26,3.23 -5.89,9.62 -8.07,14.2c-2.23,4.72 -4.67,12 -5.62,16.8c-1.2,6.03 -1.51,11.06 -1.11,17.5c0.32,5.01 1.53,11.92 2.71,15.53c1.18,3.57 3.72,9.39 5.65,12.93c1.92,3.54 5.44,8.94 7.8,12c2.37,3.06 8.97,10.07 14.67,15.58c6.13,5.92 24.68,20.92 45.37,36.69c19.25,14.68 38.27,29.5 42.27,32.94c4,3.44 10.24,10 13.87,14.57c3.62,4.58 7.31,8.73 8.2,9.22c0.96,0.54 2.31,0.53 3.34,-0.03c0.95,-0.51 2.2,-2.61 2.77,-4.66c0.57,-2.06 1.04,-5.34 1.04,-7.29c0.01,-1.96 -1.2,-5.98 -2.68,-8.95c-1.47,-2.96 -5.75,-8.61 -9.5,-12.56c-3.83,-4.04 -19.85,-17.2 -36.56,-30.06c-16.37,-12.58 -33.57,-26.05 -38.25,-29.94c-4.68,-3.89 -11.32,-9.69 -14.77,-12.89c-3.45,-3.19 -9.04,-9.46 -12.42,-13.93c-3.37,-4.46 -7.59,-11.27 -9.36,-15.12c-1.77,-3.85 -3.73,-9.38 -4.34,-12.3c-0.61,-2.91 -1.11,-8.78 -1.11,-13.04c0,-4.26 0.68,-10.42 1.5,-13.7c0.83,-3.28 3.3,-9.56 5.5,-13.96c2.2,-4.4 4,-8.94 4,-10.1c0,-1.15 -0.79,-2.77 -1.75,-3.59c-0.96,-0.83 -2.43,-1.71 -3.25,-1.95c-0.82,-0.25 -2.47,-0.29 -3.64,-0.1m134.88,0.28c-1.24,0.5 -2.8,2.09 -3.46,3.54c-1.07,2.34 -0.8,3.38 2.42,9.28c1.99,3.65 4.51,9.4 5.61,12.78c1.11,3.37 2.32,9.04 2.7,12.59c0.39,3.69 0.2,9.63 -0.45,13.8c-0.62,4.03 -2.38,10.29 -3.9,13.92c-1.53,3.62 -4.74,9.5 -7.14,13.07c-2.4,3.56 -7.78,10.03 -11.95,14.37c-4.16,4.34 -12.97,12.39 -19.57,17.89c-6.6,5.5 -12.43,10.88 -12.95,11.97c-0.8,1.64 -0.11,2.78 4.17,6.86c2.82,2.69 5.99,4.89 7.05,4.89c1.05,0 5.02,-2.2 8.82,-4.89c3.8,-2.68 11.3,-8.56 16.66,-13.06c5.36,-4.5 12.78,-11.75 16.5,-16.11c3.71,-4.37 8.43,-10.71 10.49,-14.1c2.06,-3.39 4.62,-8.53 5.7,-11.41c1.08,-2.88 2.72,-8.98 3.64,-13.55c1.19,-5.85 1.52,-10.83 1.13,-16.85c-0.33,-4.89 -1.65,-11.94 -3.11,-16.53c-1.4,-4.4 -4.56,-11.37 -7.01,-15.5c-2.46,-4.12 -5.51,-8.7 -6.78,-10.16c-1.27,-1.47 -3.21,-2.9 -4.31,-3.18c-1.1,-0.28 -3.02,-0.11 -4.26,0.38m-76.24,29.96c-1.41,1.41 -2,3.33 -2,6.5c0,4.5 0,4.5 -4.75,4.63c-2.61,0.07 -11.5,0.41 -19.75,0.75c-15,0.62 -15,0.62 -15,3.12c0,2.5 0,2.5 19.63,2.77c19.63,0.27 19.63,0.27 20.09,5.9c0.33,3.93 1.03,6.04 2.32,6.98c1.35,0.99 5.79,1.35 16.59,1.35c14.12,0 14.82,-0.1 16.31,-2.22c1.21,-1.73 1.56,-5.06 1.56,-15c0,-11.45 -0.21,-12.99 -2,-14.78c-1.82,-1.82 -3.33,-2 -16.5,-2c-13.17,0 -14.68,0.18 -16.5,2m-20.3,45.78c-1.13,1.24 -1.7,3.57 -1.7,6.89c0,3.59 0.52,5.49 1.83,6.67c1.57,1.43 4.64,1.66 22.06,1.66c13.47,0 20.97,-0.39 22.43,-1.16c1.2,-0.64 2.67,-1.83 3.26,-2.63c0.84,-1.15 3.36,-1.43 11.5,-1.29c7.85,0.13 10.91,-0.19 12.42,-1.3c1.43,-1.06 1.69,-1.8 0.93,-2.57c-0.61,-0.63 -5.78,-1.19 -12.08,-1.32c-10.88,-0.23 -11.05,-0.27 -13.6,-3.23c-2.57,-3 -2.57,-3 -23.96,-3.3c-19.88,-0.29 -21.5,-0.17 -23.09,1.58m108.72,63.29c-1.7,0.5 -3.91,1.81 -4.92,2.93c-1.14,1.26 -2.01,4.12 -2.29,7.51c-0.46,5.48 -0.46,5.49 -3.83,5.49c-2.67,0 -3.38,0.41 -3.38,1.92c0,1.05 -0.27,2.63 -0.61,3.5c-0.49,1.28 0.17,1.58 3.5,1.58c4.11,0 4.11,0 4.11,15.33c0,13.9 0.16,15.35 1.75,15.44c0.96,0.06 2.76,-0.1 4,-0.35c2.21,-0.45 2.25,-0.71 2.25,-15.44c0,-14.98 0,-14.98 4.61,-14.98c3.79,0 4.5,-0.28 4,-1.58c-0.34,-0.87 -0.61,-2.49 -0.61,-3.61c0,-1.75 -0.53,-1.97 -4,-1.64c-4,0.38 -4,0.38 -4,-3.37c0,-2.9 0.57,-4.13 2.5,-5.39c1.38,-0.91 3.4,-1.41 4.5,-1.12c1.7,0.45 2,0.03 2,-2.78c0,-2.08 -0.58,-3.52 -1.58,-3.9c-0.87,-0.34 -2.33,-0.57 -3.25,-0.52c-0.92,0.05 -3.06,0.49 -4.75,0.98m15.58,26.32c0,23.15 0.19,26.47 1.58,27c0.87,0.34 2.67,0.61 4,0.61c2.42,0 2.42,0 2.42,-27c0,-27 0,-27 -4,-27c-4,0 -4,0 -4,26.39m26.62,-10.19c-2.13,0.58 -5.58,2.76 -7.66,4.84c-2.86,2.86 -4.04,5.09 -4.86,9.12c-0.67,3.35 -0.74,6.75 -0.18,9.11c0.48,2.08 1.59,4.86 2.46,6.19c0.87,1.32 3.18,3.63 5.14,5.12c2.37,1.81 5.2,2.88 8.47,3.19c2.69,0.26 6.49,0.18 8.42,-0.19c1.94,-0.36 4.91,-1.82 6.6,-3.25c1.69,-1.42 4.01,-4.41 5.16,-6.65c1.68,-3.3 1.97,-5.28 1.56,-10.4c-0.35,-4.38 -1.23,-7.38 -2.85,-9.75c-1.29,-1.88 -3.93,-4.31 -5.86,-5.39c-1.94,-1.08 -5.54,-2.2 -8.02,-2.48c-2.48,-0.29 -6.25,-0.05 -8.38,0.54m-157.62,1.49c-1.92,0.26 -4.06,0.94 -4.75,1.51c-0.69,0.58 -1.25,3.18 -1.25,5.8c0,2.74 0.56,5.22 1.33,5.86c0.73,0.61 5.19,1.4 9.91,1.76c8.3,0.64 8.65,0.58 11.17,-1.93c1.61,-1.62 2.59,-3.71 2.59,-5.53c0,-1.62 -0.79,-3.87 -1.75,-5.01c-1.31,-1.55 -3.26,-2.18 -7.75,-2.5c-3.3,-0.24 -7.57,-0.22 -9.5,0.04m159.31,5.74c-1.75,0.78 -3.93,2.88 -4.86,4.66c-1.16,2.25 -1.53,4.74 -1.2,8.17c0.36,3.71 1.18,5.63 3.36,7.81c1.59,1.59 4.24,3.14 5.89,3.45c2.06,0.38 4.04,-0.09 6.31,-1.5c1.82,-1.14 3.99,-3.69 4.82,-5.67c1,-2.4 1.28,-4.93 0.83,-7.58c-0.37,-2.18 -1.86,-5.28 -3.32,-6.87c-1.45,-1.6 -3.99,-3.13 -5.64,-3.4c-1.65,-0.28 -4.43,0.14 -6.19,0.93m-179.65,18.4c-1.19,1.3 -1.66,3.68 -1.66,8.3c0,3.7 0.51,6.98 1.2,7.67c0.87,0.87 8.25,1.2 26.93,1.2c25.72,0 25.72,0 27.88,-2.75c2.09,-2.65 2.57,-2.77 13.72,-3.25c9.34,-0.4 11.76,-0.82 12.61,-2.17c0.76,-1.2 0.68,-2.1 -0.27,-3.25c-1.06,-1.27 -3.52,-1.58 -12.62,-1.58c-11.31,0 -11.31,0 -13.45,-3c-2.14,-3 -2.14,-3 -27.41,-3c-23.22,0 -25.41,0.15 -26.93,1.83m22.37,31.1c-0.56,1.07 -1.03,3.67 -1.03,5.78c0,2.12 0.7,4.85 1.56,6.07c1.52,2.17 2.01,2.22 21.92,2.22c20.38,0 20.38,0 22.53,-2.75c2.06,-2.62 2.65,-2.77 12.83,-3.25c9.83,-0.46 10.66,-0.66 10.66,-2.5c0,-1.86 -0.76,-2.02 -10.66,-2.28c-10.07,-0.27 -10.74,-0.42 -12.27,-2.75c-1.62,-2.47 -1.62,-2.47 -23.06,-2.47c-20.17,0 -21.5,0.11 -22.48,1.93m32.24,25.28c-1.22,0.59 -2.49,1.91 -2.81,2.92c-0.32,1.02 0,2.68 0.73,3.7c0.72,1.01 8.74,8.32 17.81,16.22c9.07,7.91 19.72,17.63 23.65,21.6c3.94,3.97 9.23,10.13 11.77,13.69c2.54,3.56 5.92,9.33 7.5,12.83c1.59,3.5 3.44,9.18 4.12,12.62c0.73,3.72 1.02,10 0.71,15.48c-0.38,6.7 -1.26,11.15 -3.23,16.23c-1.48,3.85 -3.42,8.86 -4.31,11.13c-1.49,3.83 -1.48,4.31 0.12,6.75c1.27,1.94 2.55,2.62 4.94,2.61c1.78,-0.01 3.73,-0.35 4.35,-0.75c0.62,-0.41 2.97,-3.6 5.22,-7.1c2.25,-3.49 5.47,-9.9 7.14,-14.25c1.68,-4.34 3.57,-11.27 4.21,-15.4c0.9,-5.78 0.89,-9.59 -0.05,-16.66c-0.73,-5.47 -2.42,-12.05 -4.2,-16.33c-1.64,-3.94 -5.3,-10.73 -8.13,-15.08c-2.83,-4.36 -9,-11.74 -13.73,-16.42c-4.72,-4.68 -13.08,-11.93 -18.58,-16.11c-5.5,-4.19 -13.73,-10.15 -18.29,-13.25c-6.94,-4.72 -8.97,-5.63 -12.5,-5.57c-2.32,0.04 -5.21,0.55 -6.44,1.14m-36.41,11.02c-3.5,2.32 -12.24,10.08 -19.42,17.25c-7.19,7.16 -15.4,16.47 -18.26,20.69c-2.85,4.21 -6.75,11.32 -8.66,15.78c-1.91,4.47 -3.99,11.11 -4.63,14.77c-0.66,3.79 -0.91,10.35 -0.58,15.22c0.31,4.71 1.44,11.04 2.5,14.06c1.05,3.02 3.35,8.43 5.11,12c1.76,3.57 4.42,8.3 5.93,10.5c2.11,3.1 3.48,4.07 6.03,4.32c2.1,0.2 4,-0.31 5.21,-1.4c1.05,-0.95 1.91,-2.8 1.91,-4.11c0,-1.32 -0.85,-4.06 -1.9,-6.11c-1.04,-2.05 -2.93,-7.09 -4.19,-11.21c-1.6,-5.25 -2.3,-10.04 -2.32,-15.99c-0.01,-4.68 0.59,-10.98 1.33,-14c0.74,-3.02 2.63,-8.36 4.19,-11.85c1.57,-3.49 4.83,-9.11 7.25,-12.5c2.42,-3.38 7.95,-9.7 12.27,-14.03c4.33,-4.33 12.48,-11.68 18.12,-16.33c5.64,-4.65 10.25,-9.15 10.25,-10.01c0,-0.86 -2.19,-3.75 -4.86,-6.42c-2.67,-2.67 -5.77,-4.86 -6.88,-4.86c-1.12,0 -4.9,1.9 -8.4,4.23m17.7,34.99c-0.86,1.22 -1.56,3.68 -1.56,5.46c0,3.23 0,3.23 -7.25,3.53c-6.99,0.28 -7.25,0.38 -7.25,2.79c0,2.41 0.26,2.51 7.25,2.79c7.25,0.3 7.25,0.3 7.25,3.75c0,2.13 0.77,4.23 2,5.46c1.79,1.79 3.33,2 14.5,2c11.17,0 12.71,-0.21 14.5,-2c1.23,-1.23 2,-3.33 2,-5.46c0,-3.46 0,-3.46 8.75,-3.75c8.59,-0.29 8.75,-0.34 8.75,-2.79c0,-2.45 -0.16,-2.5 -8.75,-2.79c-8.75,-0.29 -8.75,-0.29 -8.75,-4.09c0,-2.42 -0.67,-4.41 -1.83,-5.47c-1.5,-1.36 -4.14,-1.65 -14.94,-1.65c-12.42,0 -13.2,0.12 -14.67,2.22m9.8,35.77c-1.18,0.48 -2.79,1.79 -3.58,2.91c-1.34,1.91 -2.6,2.07 -18.84,2.33c-15.84,0.25 -17.45,0.43 -17.76,2.07c-0.19,0.99 0.2,2.45 0.86,3.25c0.96,1.16 4.53,1.45 17.91,1.45c16.52,0 16.73,0.03 19.05,2.5c2.35,2.5 2.35,2.5 22.62,2.5c19.81,0 20.3,-0.05 21.82,-2.22c0.88,-1.26 1.56,-4.3 1.56,-7c0,-3.45 -0.56,-5.34 -2,-6.78c-1.86,-1.86 -3.29,-2 -20.75,-1.94c-10.31,0.04 -19.71,0.46 -20.89,0.93" fill="#fcf9f3" fill-rule="evenodd" id="svg_2"/>
      <rect fill="#fcf9f3" height="136" id="svg_3" width="117.643" x="1.576" y="1.2"/>
      <rect fill="#fcf9f3" height="136" id="svg_4" width="117.643" x="405.572" y="2.3"/>
      <rect fill="#fcf9f3" height="136" id="svg_5" width="117.643" x="0.576" y="388.3"/>
      <rect fill="#fcf9f3" height="136" id="svg_6" width="117.643" x="405.574" y="387.3"/>
      <rect fill="#fcf9f3" height="56.105" id="rect-1" width="525.709" x="0.333" y="-3.766" style="stroke-width: 1;"/>
      <rect fill="#fcf9f3" height="53.525" id="rect-2" width="524.433" x="1.421" y="470.992" style="stroke-width: 1;"/>
      <rect fill="#fcf9f3" height="525.236" id="rect-3" width="87.406" x="438.909" y="-1.197" style="stroke-width: 1;"/>
      <rect fill="#fcf9f3" height="525.522" id="rect-4" width="87.406" x="0.203" y="-1.2" style="stroke-width: 1;"/>
    </g>
  </g>
</svg>